<?xml version="1.0" encoding="UTF-8"?>
<svg width="1200pt" height="1200pt" version="1.1" viewBox="0 0 1200 1200" xmlns="http://www.w3.org/2000/svg">
 <g>
  <path d="m599.11 974.12c-23.02 0-35.699-12.68-35.699-35.703v-173.78c0-0.23047 0.011719-0.45703 0.027344-0.6875l9.1211-109.41v-27.086c0-37.832-9.6406-57.266-20.801-79.766-9.3477-18.84-19.938-40.191-24.848-74.562-5.25-36.754 3.418-71.301 23.781-94.781 13.645-15.734 30.844-24.402 48.422-24.402s34.773 8.6641 48.422 24.402c20.363 23.48 29.031 58.027 23.781 94.781-4.9102 34.371-15.504 55.719-24.848 74.555-11.16 22.496-20.801 41.926-20.801 79.766v27.094l9.1211 109.41c0.019532 0.22656 0.027344 0.45703 0.027344 0.6875v173.78c-0.011719 23.027-12.691 35.707-35.707 35.707zm-19.18-209.14v173.44c0 13.805 5.3789 19.184 19.18 19.184s19.18-5.3789 19.184-19.184v-173.43l-9.1211-109.41c-0.019531-0.22656-0.027344-0.45703-0.027344-0.6875v-28.441c0-0.078125 0.003906-0.15625 0.003906-0.23438 0.21484-40.914 11.051-62.762 22.516-85.871 9.2227-18.586 18.758-37.801 23.293-69.547 4.5742-32.012-2.6836-61.762-19.906-81.621-10.309-11.887-23.41-18.707-35.941-18.707s-25.633 6.8203-35.941 18.707c-17.223 19.859-24.48 49.609-19.906 81.621 4.5312 31.746 14.07 50.973 23.293 69.562 11.469 23.113 22.305 44.961 22.52 85.867 0.003907 0.078126 0.003907 0.15625 0.003907 0.23047v28.438c0 0.23047-0.011719 0.45703-0.027344 0.6875z"/>
  <path d="m580.82 507.65c-2.1133 0-4.2305-0.80859-5.8398-2.4219-9.9766-9.9766-20.711-30.367-20.711-51.574 0-21.32 10.402-41.262 20.711-51.574 11.242-11.238 22.844-11.566 24.133-11.566 1.3086 0 13.105 0.32812 24.188 11.621 3.1953 3.2578 3.1484 8.4844-0.10938 11.684-3.2539 3.1953-8.4844 3.1484-11.68-0.10937-6.1602-6.2812-12.34-6.6719-12.398-6.6719-0.078125 0.007813-6.0703 0.34766-12.453 6.7266-7.8867 7.8867-15.875 24.121-15.875 39.891s7.9844 32.004 15.875 39.891c3.2266 3.2266 3.2266 8.457 0 11.684-1.6094 1.6133-3.7266 2.4219-5.8398 2.4219z"/>
 </g>
</svg>
